<svg xmlns="http://www.w3.org/2000/svg" xmlns:xlink="http://www.w3.org/1999/xlink" aria-hidden="true" focusable="false" width="0.79em" height="1em" style="-ms-transform: rotate(360deg); -webkit-transform: rotate(360deg); transform: rotate(360deg);" preserveAspectRatio="xMidYMid meet" viewBox="0 0 800 1024"><path d="M47 523q-21 0-26-19q-12-36-17-80.5t-3.5-90t14-88.5T50 176q-7-28-7-57.5T50 60t20-48Q78-1 94 0q26 1 49.5 6.5T188 22t35 18t34 22q87-23 187-17q17 1 48 8q29 6 37 5.5T561 41q21-14 33-19q45-20 99-22q12 0 20 7.5t8.5 19t-7 19.5t-19.5 9q-44 1-79 17q-8 3-24 14q-36 25-58 27q-18 2-54-7q-28-6-39-7q-98-5-182 19q-12 3-22-4l-7-5q-25-16-38-24t-36.5-17T108 56q-10 24-10.5 58.5T106 173q8 18-7 31q-36 30-43 122.5T73 487q3 10-2 20.5T55 521q-4 2-8 2zm208 270l-6-1q-11-2-17.5-11.5T228 759l2-7q14-63 25-92q-84-17-144-56.5T22 508q-5-10-1.5-21T34 471t21-1.5T71 483q26 51 86 84.5T303 613q18 3 23 20q4 18-10 29q-13 12-33 101l-2 8q-2 10-9.5 16t-16.5 6zm-51 200q-2 0-5-1q-11-2-17.5-11t-4.5-20q5-26 34-43q9-5 10-8q7-14 4-75q-2-23-2-35q-33 5-63.5 6.5t-59-11T55 754q-7-11-16.5-34.5T23 688q-7-9-6-20t10-18.5t20-6t18 9.5q13 15 25 47q2 6 3.5 9.5T97 718t4 8q14 23 49 25.5t96-11.5q13-3 23.5 6.5T278 770q-1 16 1 62q3 75-9 101q-9 19-32 32q-7 5-8 5q-1 10-8.5 16.5T204 993zm398-5q-15 0-23-13q-2-3-11-9q-21-15-30-32q-11-22-12.5-57.5T527 807q3-61 0-86q-3-20-20-42q-14-19-20-30q-6-13 2-26q7-12 21-13q77-6 135.5-40.5T733 477q5-10 15.5-13.5t21 1.5t14 16t-1.5 21q-31 61-88.5 101.5T560 659q17 25 21 55t1 96q-4 80 5 99q2 3 4 5.5t8 6.5q17 11 26 24q6 10 3.5 21T617 983q-4 2-7.5 3.5T602 988zm155-471q-3 0-7-1q-11-3-16.5-13t-2.5-21q23-79 9.5-167T688 193q-14-12-8-30q8-29 4.5-63.5T669 38q-4-10 0-20.5t14.5-15t21-.5T719 16q14 31 19 69.5t-2 78.5q32 35 48 94t15.5 122T784 497q-7 19-27 20zm-245 507q-8 0-15-4q-20-13-48-56q-19-29-27-290q-1-8 2.5-14.5t10-10T448 645q11 0 19.5 8t8.5 19q7 228 20 264q22 34 30 38q10 6 12.5 17t-4.5 21q-7 12-22 12zm-208 0q-15 0-23-12q-6-10-3.5-21t11.5-17q9-4 31-38q12-34 19-264q1-11 9-19t19.5-7.5t19 8.5t7.5 20q-8 261-27 290q-28 43-48 56q-7 4-15 4z" /><rect x="0" y="0" width="800" height="1024" fill="rgba(0, 0, 0, 0)" /></svg>